<?xml version="1.0" encoding="utf-8"?><!DOCTYPE svg PUBLIC "-//W3C//DTD SVG 1.1//EN" "http://www.w3.org/Graphics/SVG/1.1/DTD/svg11.dtd"><svg width="210" height="210" viewBox="0 0 210 210" xmlns="http://www.w3.org/2000/svg" xmlns:xlink="http://www.w3.org/1999/xlink"><svg width="42" height="42" viewBox="-78.12 -78.12 656.25 656.25" id="checkmark"><title>checkmark</title><path d="M177.153 331.791L441.602 67.342c3.594-3.594 9.393-3.621 12.982-.031l40.732 40.732c3.576 3.576 3.592 9.358-.031 12.982L205.282 411.027l-21.653 21.653a9.144 9.144 0 0 1-12.95.001L4.686 266.688a9.145 9.145 0 0 1 .001-12.95l40.732-40.732a9.144 9.144 0 0 1 12.95-.001l118.784 118.786z"/></svg><svg width="42" height="42" viewBox="-78.12 -78.12 656.25 656.25" id="chevron-down" x="42" y="42"><title>chevron-down</title><path d="M498 154.953l-57.906-57.906L250 287.141 59.958 97.047 2 154.953l248 248z"/></svg><svg width="42" height="42" viewBox="-78.12 -78.12 656.25 656.25" id="chevron-left" x="84" y="84"><title>chevron-left</title><path d="M345.047 2l57.906 57.906L212.86 250l190.093 190.042L345.047 498l-248-248z"/></svg><svg width="42" height="42" viewBox="-78.12 -78.12 656.25 656.25" id="chevron-right" x="126" y="126"><title>chevron-right</title><path d="M154.953 2L97.047 59.906 287.141 250 97.047 440.042 154.953 498l248-248z"/></svg><svg width="42" height="42" viewBox="-78.12 -78.12 656.25 656.25" id="chevron-up" x="168" y="168"><title>chevron-up</title><path d="M498 345.047l-57.906 57.906L250 212.86 59.958 402.953 2 345.047l248-248z"/></svg></svg>